<svg xmlns="http://www.w3.org/2000/svg" viewBox="0 0 528.87 542.84"><g id="Calque_2" data-name="Calque 2"><g id="_02" data-name="02"><path d="M325.18,523.82C461.53,488,544.9,355.57,511.4,228.13S340.19,26.45,203.83,62.3-15.94,230.54,17.57,358,188.82,559.67,325.18,523.82Z" style="fill:#af34ff;stroke:#000;stroke-miterlimit:10;stroke-width:20px"/><path d="M91,123.35a254.19,254.19,0,0,0-50.43,63.32c-23.88-22.44-58.2-74.79,4.94-160.4C45.48,26.27,50.35,91.6,91,123.35Z" style="fill:#af34ff;stroke:#000;stroke-miterlimit:10;stroke-width:19px"/><path d="M493.44,181.55a228.43,228.43,0,0,0-49.23-63.65c34.83-33.19,39.2-91.63,39.2-91.63C542.15,105.92,516.52,156.78,493.44,181.55Z" style="fill:#af34ff;stroke:#000;stroke-miterlimit:10;stroke-width:19px"/><path d="M70,404.61a194.62,194.62,0,0,1-16.25-26.49C49,368.76,46.24,359.39,44,349.17S40.86,328.44,40.14,318c-.35-5.13.2-10.28.32-15.41s0-10.67,2.12-15.53c3.77-8.84-9.63-15.59-13.42-6.69-4.55,10.67-4.15,23.57-4.11,35a179.71,179.71,0,0,0,4,35.13c2.33,11.25,5.19,21.57,10.22,31.93a199.8,199.8,0,0,0,18.17,30.39C63.13,420.62,75.69,412.42,70,404.61Z" style="fill:#d99eff"/><path d="M74.14,436a7.62,7.62,0,0,0,3.82-.25l1.73-.84a7.43,7.43,0,0,0,2.6-2.93l.31-.62a5.64,5.64,0,0,0,.71-2.88,6.71,6.71,0,0,0-1.78-5.31,5.61,5.61,0,0,0-2.3-1.87l-1.9-.65a7.5,7.5,0,0,0-3.82.25l-1.73.84a7.35,7.35,0,0,0-2.6,2.93l-.31.62a5.51,5.51,0,0,0-.71,2.87,6.72,6.72,0,0,0,1.78,5.32,5.66,5.66,0,0,0,2.29,1.87Z" style="fill:#d99eff"/><path d="M478.46,347.52c-2.54,10-9,19.41-13.88,28.45-2.94,5.51,2.29,13.1,8.66,11.37,7-1.91,10.59-14.22,13.45-20,7.49-15,9.95-31.38,11.48-47.92a202,202,0,0,0-5.35-69.65c-2.4-9.33-17-5.79-14.56,3.59a184.3,184.3,0,0,1,5.09,63.79A196.78,196.78,0,0,1,478.46,347.52Z" style="fill:#d99eff"/><path d="M72.77,117.39c-7.31-4.89-12.85-14.23-16.57-22a115.42,115.42,0,0,1-9.11-28.86c-1.18-6.32-10.82-3.64-9.65,2.66a122.7,122.7,0,0,0,10.93,32.87c4.43,8.78,11.08,18.39,19.36,23.94C73.09,129.62,78.1,121,72.77,117.39Z" style="fill:#d99eff"/><path d="M482.32,61.05c1.32,8.7-1.83,19.09-5,27.05a115.44,115.44,0,0,1-15.14,26.21c-3.87,5.13,4.61,10.44,8.46,5.32A122.71,122.71,0,0,0,487.5,89.38C491,80.19,493.59,68.8,492.09,59,491.12,52.57,481.35,54.71,482.32,61.05Z" style="fill:#d99eff"/><path d="M305.65,269.25c-.41,41.73,14.08,77.89,35.4,95,8.32,6.66,17.65,10.42,27.59,10.5,35.35.3,64.47-46.48,65-104.47s-27.64-105.23-63-105.52c-9.41-.08-18.36,3.16-26.42,9C321.89,190.11,306.06,226.64,305.65,269.25Z" style="fill:#fff;stroke:#000;stroke-miterlimit:10;stroke-width:2.3000000000000003px"/><path d="M350.17,191.5c6-4.76,12.73-7.39,19.77-7.33,26.44.22,47.52,38.48,47.08,85.43q0,3.38-.23,6.69l-50.89-14.4,47.57,38.47c-7.25,31.68-24.82,54-45.15,53.87-7.44-.07-14.41-3.11-20.64-8.5-15.94-13.86-26.76-43.14-26.44-76.93C321.57,234.3,333.42,204.7,350.17,191.5Z" style="stroke:#000;stroke-miterlimit:10;stroke-width:2.3000000000000003px"/><path d="M222.37,269.25c.41,41.73-14.08,77.89-35.4,95-8.33,6.66-17.65,10.42-27.59,10.5-35.35.3-64.47-46.48-65-104.47s27.64-105.23,63-105.52c9.41-.08,18.36,3.16,26.42,9C206.13,190.11,222,226.64,222.37,269.25Z" style="fill:#fff;stroke:#000;stroke-miterlimit:10;stroke-width:2.3000000000000003px"/><path d="M177.85,191.5c-6-4.76-12.73-7.39-19.77-7.33-26.45.22-47.53,38.48-47.08,85.43,0,2.25.11,4.48.23,6.69l50.89-14.4-47.57,38.47c7.25,31.68,24.82,54,45.15,53.87,7.44-.07,14.41-3.11,20.64-8.5,15.94-13.86,26.76-43.14,26.44-76.93C206.45,234.3,194.59,204.7,177.85,191.5Z" style="stroke:#000;stroke-miterlimit:10;stroke-width:2.3000000000000003px"/><ellipse cx="162.96" cy="175.54" rx="14.56" ry="72.94" transform="translate(-66.65 243.73) rotate(-63.67)" style="stroke:#000;stroke-miterlimit:10;stroke-width:2.3000000000000003px"/><ellipse cx="363.53" cy="174.44" rx="72.94" ry="14.56" transform="translate(-39.52 185.9) rotate(-27.26)" style="stroke:#000;stroke-miterlimit:10;stroke-width:2.3000000000000003px"/><ellipse cx="263.74" cy="318.79" rx="20.81" ry="19.24" style="fill:#af34ff;stroke:#000;stroke-miterlimit:10;stroke-width:2.3000000000000003px"/><path d="M269.09,307.14c-7.82,2.95-3.25,15.11,4.58,12.16S276.93,304.19,269.09,307.14Z" style="fill:#d99eff"/><path d="M308.82,343.45s9.05,139.68-40.93,139.45c-56.89-.25-43.27-139.83-43.27-139.83a91.74,91.74,0,0,0,84.2.38Z" style="fill:#fff;stroke:#000;stroke-miterlimit:10;stroke-width:2.3000000000000003px"/><polyline points="283.03 352.06 282.9 414.73 282.78 477.9 282.77 477.96" style="fill:none;stroke:#000;stroke-miterlimit:10;stroke-width:2.3000000000000003px"/><polyline points="251.84 352.26 252.19 414.58 252.55 478.71" style="fill:none;stroke:#000;stroke-miterlimit:10;stroke-width:2.3000000000000003px"/><polyline points="306.93 414.82 282.9 414.73 252.19 414.58 225.11 414.43" style="fill:none;stroke:#000;stroke-miterlimit:10;stroke-width:2.3000000000000003px"/></g></g></svg>