<svg width="681" height="519" viewBox="0 0 681 519" fill="none" xmlns="http://www.w3.org/2000/svg">
<g clip-path="url(#clip0_372_3329)">
<g filter="url(#filter0_d_372_3329)">
<path d="M123.26 259.044L153.239 218.009C155.975 214.264 160.721 212.222 166.432 212.333C172.143 212.443 178.351 214.697 183.692 218.599C189.032 222.5 193.067 227.73 194.909 233.137C196.75 238.544 196.248 243.686 193.512 247.431L145.438 313.234C142.702 316.979 137.956 319.021 132.245 318.91C126.534 318.799 120.326 316.545 114.985 312.644L21.1909 244.12C15.8504 240.218 11.8156 234.989 9.97403 229.582C8.13244 224.175 8.63494 219.033 11.371 215.288C14.107 211.543 18.8525 209.501 24.5635 209.612C30.2744 209.723 36.483 211.977 41.8235 215.878L73.6387 239.122C59.5576 191.672 60.5901 146.11 76.6099 108.005C92.6296 69.8997 122.943 40.9011 163.845 24.553C204.747 8.20502 254.467 5.21563 306.927 15.9502C359.388 26.6848 412.318 50.6785 459.248 84.9989L438.615 113.241C398.053 83.6034 352.16 63.2474 306.945 54.8391C261.731 46.4308 219.303 50.3621 185.221 66.118C151.138 81.874 126.989 108.72 115.937 143.14C104.885 177.56 107.444 217.948 123.281 259.016L123.26 259.044Z" fill="#FF8A00"/>
<path d="M123.26 259.044L153.239 218.009C155.975 214.264 160.721 212.222 166.432 212.333C172.143 212.443 178.351 214.697 183.692 218.599C189.032 222.5 193.067 227.73 194.909 233.137C196.75 238.544 196.248 243.686 193.512 247.431L145.438 313.234C142.702 316.979 137.956 319.021 132.245 318.91C126.534 318.799 120.326 316.545 114.985 312.644L21.1909 244.12C15.8504 240.218 11.8156 234.989 9.97403 229.582C8.13244 224.175 8.63494 219.033 11.371 215.288C14.107 211.543 18.8525 209.501 24.5635 209.612C30.2744 209.723 36.483 211.977 41.8235 215.878L73.6387 239.122C59.5576 191.672 60.5901 146.11 76.6099 108.005C92.6296 69.8997 122.943 40.9011 163.845 24.553C204.747 8.20502 254.467 5.21563 306.927 15.9502C359.388 26.6848 412.318 50.6785 459.248 84.9989L438.615 113.241C398.053 83.6034 352.16 63.2474 306.945 54.8391C261.731 46.4308 219.303 50.3621 185.221 66.118C151.138 81.874 126.989 108.72 115.937 143.14C104.885 177.56 107.444 217.948 123.281 259.016L123.26 259.044Z" stroke="black" stroke-width="6"/>
</g>
<g filter="url(#filter1_d_372_3329)">
<path d="M594.11 400.945C610.141 362.87 611.202 317.341 597.163 269.917L628.938 293.131C634.278 297.033 640.487 299.287 646.198 299.398C651.909 299.508 656.654 297.466 659.39 293.721C662.126 289.976 662.629 284.835 660.787 279.428C658.945 274.021 654.911 268.791 649.57 264.89L555.856 196.425C550.516 192.523 544.307 190.269 538.596 190.158C532.885 190.048 528.14 192.09 525.404 195.835L477.35 261.61C474.614 265.355 474.112 270.496 475.954 275.903C477.795 281.31 481.83 286.54 487.17 290.441C492.511 294.343 498.719 296.597 504.43 296.708C510.141 296.818 514.887 294.777 517.623 291.031L547.602 249.996C563.424 291.059 565.971 331.439 554.911 365.849C543.85 400.259 519.698 427.096 485.615 442.844C451.533 458.593 409.11 462.52 363.901 454.11C318.692 445.7 272.805 425.346 232.248 395.714L211.615 423.955C258.533 458.243 311.439 482.211 363.872 492.932C416.306 503.654 465.999 500.664 506.884 484.329C547.769 467.994 578.078 439.02 594.11 400.945Z" fill="#FF5C00"/>
<path d="M597.163 269.917C611.202 317.341 610.141 362.87 594.11 400.945C578.078 439.02 547.769 467.994 506.884 484.329C465.999 500.664 416.306 503.654 363.872 492.932C311.439 482.211 258.533 458.243 211.615 423.955L232.248 395.714C272.805 425.346 318.692 445.7 363.901 454.11C409.11 462.52 451.533 458.593 485.615 442.844C519.698 427.096 543.85 400.259 554.911 365.849C565.971 331.439 563.424 291.059 547.602 249.996L517.623 291.031C514.887 294.777 510.141 296.818 504.43 296.708C498.719 296.597 492.511 294.343 487.17 290.441C481.83 286.54 477.795 281.31 475.954 275.903C474.112 270.496 474.614 265.355 477.35 261.61L525.404 195.835C528.14 192.09 532.885 190.048 538.596 190.158C544.307 190.269 550.516 192.523 555.856 196.425L649.57 264.89C654.911 268.791 658.945 274.021 660.787 279.428C662.629 284.835 662.126 289.976 659.39 293.721C656.654 297.466 651.909 299.508 646.198 299.398C640.487 299.287 634.278 297.033 628.938 293.131L597.122 269.888L597.163 269.917Z" stroke="black" stroke-width="6"/>
</g>
<path d="M424.02 354.647C410.71 354.658 401.923 350.241 395.183 345.47C388.443 340.7 375.645 332.059 375.346 317.812C375.226 310.426 385.737 300.431 385.674 293.637C385.611 286.844 385.577 280.15 385.571 273.554C385.566 266.893 385.589 260.132 385.641 253.273C385.692 246.413 385.773 239.257 385.881 231.804C386.042 218.151 389.161 208.189 395.237 201.919C401.37 195.582 409.467 179.872 422.433 179.861C435.112 179.851 445.891 195.611 451.863 202.07C457.892 208.528 461.085 218.485 461.44 231.94C461.499 234.116 461.53 236.49 461.532 239.063C461.534 241.569 461.507 244.108 461.452 246.681C461.397 249.187 461.341 251.528 461.286 253.705L435.469 253.726C435.524 251.286 420.951 241.501 421.006 238.862C421.062 236.158 435.716 240.733 435.714 238.095C435.712 235.391 435.681 232.818 435.621 230.378C435.56 225.431 434.61 221.904 432.773 219.795C430.935 217.62 427.98 216.534 423.906 216.537C419.718 216.54 416.649 217.631 414.701 219.809C412.809 221.922 411.808 225.451 411.697 230.398C411.531 237.653 411.394 244.875 411.285 252.064C411.233 259.254 411.211 266.41 411.217 273.533C411.222 280.656 411.257 287.779 411.32 294.902C411.441 302.025 411.59 309.214 411.768 316.469C411.887 321.482 412.894 325.076 414.789 327.251C416.742 329.425 419.812 330.511 424 330.508C428.303 330.504 431.4 329.413 433.292 327.235C435.183 325.057 436.213 321.462 436.381 316.449C436.493 313.613 436.548 311.008 436.546 308.633C436.602 306.259 436.6 303.851 436.541 301.411C436.539 298.971 436.479 296.267 436.362 293.299L445.847 279.399C446.369 278.636 447.456 278.534 448.109 279.188L462.179 293.277C462.296 296.443 462.357 300.038 462.36 304.061C462.363 308.084 462.309 311.679 462.197 314.845C461.864 329.091 458.746 339.284 452.842 345.423C446.995 351.561 437.388 354.636 424.02 354.647Z" fill="#34250F"/>
<path d="M424.052 354.648C398.092 354.669 382.245 336.49 377.567 327.398L443.2 322.182L458.698 334.707C457.966 341.345 450.012 354.626 424.052 354.648Z" fill="#982828"/>
<path d="M409.258 339.91C395.947 339.921 386.335 336.862 380.421 330.733C374.564 324.604 371.486 314.416 371.187 300.17C371.067 292.783 370.975 285.693 370.912 278.9C370.849 272.106 370.814 265.412 370.809 258.816C370.804 252.155 370.827 245.394 370.878 238.535C370.93 231.676 371.01 224.519 371.119 217.066C371.28 203.413 374.398 193.452 380.475 187.181C386.608 180.844 396.158 177.67 409.124 177.66C421.803 177.649 431.129 180.873 437.101 187.332C443.13 193.791 446.322 203.747 446.678 217.202C446.737 219.378 446.768 221.753 446.77 224.325C446.772 226.831 446.745 229.371 446.69 231.943C446.647 233.907 446.603 235.77 446.56 237.531C446.54 238.33 445.886 238.968 445.087 238.968L422.216 238.987C421.388 238.988 420.722 238.307 420.74 237.479C420.784 235.505 420.828 233.469 420.872 231.371C420.927 228.666 420.954 225.995 420.952 223.357C420.949 220.653 420.919 218.081 420.859 215.64C420.798 210.694 419.848 207.166 418.01 205.057C416.173 202.882 413.217 201.796 409.144 201.799C404.956 201.803 401.887 202.894 399.938 205.072C398.047 207.184 397.046 210.713 396.935 215.66C396.769 222.915 396.631 230.137 396.523 237.327C396.471 244.516 396.448 251.672 396.454 258.795C396.46 265.918 396.495 273.041 396.558 280.165C396.679 287.288 396.828 294.477 397.006 301.732C397.125 306.744 398.132 310.338 400.027 312.513C401.979 314.688 405.05 315.773 409.238 315.77C413.541 315.766 416.638 314.676 418.529 312.498C420.421 310.319 421.451 306.724 421.619 301.711C421.731 298.875 421.786 296.27 421.784 293.895C421.84 291.521 421.838 289.114 421.778 286.673C421.777 284.66 421.736 282.466 421.656 280.093C421.627 279.257 422.296 278.56 423.133 278.56L445.994 278.541C446.788 278.54 447.441 279.168 447.465 279.961C447.551 282.77 447.595 285.89 447.598 289.323C447.601 293.347 447.547 296.941 447.435 300.107C447.102 314.354 443.984 324.546 438.08 330.685C432.233 336.824 422.625 339.899 409.258 339.91Z" fill="#FF8A00"/>
<path d="M297.096 354.752C296.693 354.752 296.307 354.587 296.028 354.295L282.249 339.851C281.907 339.493 281.768 338.987 281.878 338.505L315.019 193.145C315.114 192.727 315.387 192.372 315.765 192.171L342.056 178.21C342.615 177.914 343.3 178.006 343.76 178.44L358.226 192.083C358.479 192.321 358.639 192.64 358.679 192.985L377.397 353.041C377.499 353.917 376.815 354.686 375.933 354.687L352.118 354.707C351.695 354.707 351.292 354.526 351.012 354.21L338.461 340.032C338.038 339.554 337.97 338.859 338.293 338.308L347.235 323.063C347.812 322.08 347.102 320.841 345.962 320.842L326.813 320.858C326.047 320.859 325.409 321.446 325.344 322.209L322.715 353.381C322.65 354.145 322.012 354.732 321.246 354.732L297.096 354.752ZM327.947 292.486C327.874 293.347 328.554 294.085 329.418 294.085L344.536 294.072C345.4 294.071 346.078 293.332 346.004 292.471L343.057 258.175L341.063 220.635C341.021 219.851 340.373 219.238 339.588 219.238L334.242 219.243C333.457 219.243 332.81 219.858 332.77 220.642L330.837 258.186L327.947 292.486Z" fill="#34250F"/>
<path d="M296.032 354.321L282.746 341.057C281.816 340.128 282.473 338.539 283.787 338.538L306.94 338.519C307.309 338.519 307.664 338.657 307.937 338.906L322.429 352.169C323.422 353.077 322.78 354.731 321.435 354.732L297.075 354.752C296.684 354.752 296.309 354.597 296.032 354.321Z" fill="#982828"/>
<path d="M350.6 354.227L337.795 340.225C336.929 339.279 337.6 337.756 338.882 337.755L361.495 337.736C361.876 337.736 362.241 337.883 362.516 338.146L377.149 352.146C378.11 353.065 377.46 354.686 376.131 354.687L351.69 354.707C351.275 354.707 350.88 354.533 350.6 354.227Z" fill="#982828"/>
<path d="M283.358 340.013C282.476 340.014 281.791 339.246 281.892 338.37L300.257 179.054C300.342 178.31 300.972 177.749 301.721 177.748L342.541 177.715C343.29 177.714 343.92 178.275 344.007 179.018L362.635 338.303C362.737 339.179 362.053 339.949 361.171 339.949L338.045 339.968C337.279 339.969 336.64 339.383 336.575 338.62L333.894 307.452C333.828 306.689 333.189 306.103 332.423 306.103L312.051 306.12C311.284 306.121 310.646 306.708 310.582 307.471L307.953 338.643C307.888 339.407 307.25 339.994 306.484 339.994L283.358 340.013ZM313.185 277.748C313.112 278.609 313.792 279.347 314.656 279.347L329.773 279.334C330.637 279.334 331.316 278.594 331.242 277.733L328.295 243.438L326.3 205.897C326.259 205.114 325.611 204.5 324.826 204.5L319.48 204.505C318.695 204.506 318.048 205.12 318.008 205.904L316.075 243.448L313.185 277.748Z" fill="#FF8A00"/>
<path d="M245.907 354.794C245.438 354.795 244.996 354.572 244.718 354.194L234.097 339.77C233.883 339.478 233.783 339.118 233.817 338.757L244.897 220.931C244.978 220.065 244.297 219.317 243.427 219.318L221.955 219.335C221.441 219.336 220.964 219.068 220.696 218.63L212.089 204.555C211.754 204.007 211.812 203.306 212.232 202.82L220.796 192.922C220.997 192.69 221.266 192.526 221.565 192.454L281.424 177.977C281.965 177.847 282.533 178.031 282.894 178.455L294.504 192.091C294.731 192.358 294.856 192.696 294.856 193.046L294.876 217.8C294.877 218.615 294.217 219.276 293.403 219.276L272.431 219.294C271.617 219.294 270.957 219.955 270.958 220.77L271.067 353.299C271.067 354.113 270.408 354.774 269.593 354.775L245.907 354.794Z" fill="#34250F"/>
<path d="M244.397 354.197L234.092 340.279C233.36 339.29 234.088 337.893 235.318 337.927L257.479 338.542C257.877 338.553 258.253 338.724 258.523 339.016L270.779 352.299C271.65 353.244 270.981 354.773 269.696 354.775L245.583 354.794C245.115 354.795 244.675 354.573 244.397 354.197Z" fill="#982828"/>
<path d="M270.837 219.304L258.722 205.395C257.878 204.426 258.59 202.917 259.874 202.952L281.123 203.528C281.515 203.539 281.888 203.706 282.157 203.992L294.694 217.306C295.58 218.247 294.914 219.791 293.622 219.792L271.95 219.81C271.523 219.81 271.117 219.626 270.837 219.304Z" fill="#982828"/>
<path d="M220.691 218.82L212.273 205.911C211.634 204.931 212.336 203.632 213.505 203.63L234.076 203.586C234.891 203.585 235.553 204.245 235.554 205.06L235.564 218.003C235.565 218.818 234.905 219.479 234.091 219.479L221.928 219.489C221.429 219.49 220.963 219.238 220.691 218.82Z" fill="#982828"/>
<path d="M234.345 340.054L234.233 204.575L210.79 204.594L210.768 177.823L283.043 177.764L283.065 204.535L259.623 204.554L259.734 340.033L234.345 340.054Z" fill="#FF8A00"/>
</g>
<defs>
<filter id="filter0_d_372_3329" x="5.88333" y="6.6311" width="468.556" height="322.283" filterUnits="userSpaceOnUse" color-interpolation-filters="sRGB">
<feFlood flood-opacity="0" result="BackgroundImageFix"/>
<feColorMatrix in="SourceAlpha" type="matrix" values="0 0 0 0 0 0 0 0 0 0 0 0 0 0 0 0 0 0 127 0" result="hardAlpha"/>
<feOffset dx="10" dy="6"/>
<feGaussianBlur stdDeviation="0.5"/>
<feComposite in2="hardAlpha" operator="out"/>
<feColorMatrix type="matrix" values="0 0 0 0 0 0 0 0 0 0 0 0 0 0 0 0 0 0 1 0"/>
<feBlend mode="normal" in2="BackgroundImageFix" result="effect1_dropShadow_372_3329"/>
<feBlend mode="normal" in="SourceGraphic" in2="effect1_dropShadow_372_3329" result="shape"/>
</filter>
<filter id="filter1_d_372_3329" x="207.424" y="187.154" width="468.454" height="322.088" filterUnits="userSpaceOnUse" color-interpolation-filters="sRGB">
<feFlood flood-opacity="0" result="BackgroundImageFix"/>
<feColorMatrix in="SourceAlpha" type="matrix" values="0 0 0 0 0 0 0 0 0 0 0 0 0 0 0 0 0 0 127 0" result="hardAlpha"/>
<feOffset dx="10" dy="6"/>
<feGaussianBlur stdDeviation="0.5"/>
<feComposite in2="hardAlpha" operator="out"/>
<feColorMatrix type="matrix" values="0 0 0 0 0 0 0 0 0 0 0 0 0 0 0 0 0 0 1 0"/>
<feBlend mode="normal" in2="BackgroundImageFix" result="effect1_dropShadow_372_3329"/>
<feBlend mode="normal" in="SourceGraphic" in2="effect1_dropShadow_372_3329" result="shape"/>
</filter>
<clipPath id="clip0_372_3329">
<rect width="681" height="519" fill="white"/>
</clipPath>
</defs>
</svg>
